<svg width="44" height="44" viewBox="0 0 44 44" fill="none" xmlns="http://www.w3.org/2000/svg">
<path d="M6.04267 37.7704L17.71 26.1031M32.4023 20.9147L28.9098 31.3941C28.8539 31.5617 28.7583 31.7133 28.6313 31.8362C28.5043 31.9591 28.3495 32.0495 28.1802 32.0999L6.7705 38.4652C6.57762 38.5225 6.37272 38.5258 6.1781 38.4747C5.98348 38.4237 5.8066 38.3202 5.6667 38.1755C5.52681 38.0309 5.42926 37.8507 5.38467 37.6545C5.34009 37.4583 5.35018 37.2536 5.41384 37.0627L12.3658 16.2104C12.4157 16.0607 12.4971 15.9234 12.6047 15.808C12.7122 15.6925 12.8434 15.6015 12.9892 15.5412L22.8653 11.4749C23.0661 11.392 23.287 11.3704 23.5 11.4128C23.7131 11.4552 23.9088 11.5597 24.0625 11.7132L32.1365 19.7891C32.281 19.9335 32.3824 20.1153 32.4293 20.3141C32.4763 20.513 32.4669 20.7209 32.4023 20.9147Z" stroke="white" stroke-width="1.5" stroke-linecap="round" stroke-linejoin="round"/>
<path d="M33.7384 5.8337L38.0724 10.1677C38.398 10.4793 38.6582 10.8528 38.8376 11.2663C39.0169 11.6798 39.1119 12.125 39.1169 12.5757C39.1219 13.0264 39.0368 13.4736 38.8666 13.8909C38.6964 14.3083 38.4446 14.6875 38.1259 15.0062C37.8071 15.3249 37.428 15.5768 37.0106 15.7469C36.5932 15.9171 36.1461 16.0022 35.6954 15.9972C35.2446 15.9923 34.7995 15.8973 34.386 15.7179C33.9725 15.5385 33.5989 15.2784 33.2874 14.9527L28.9515 10.6187C28.34 9.9795 28.003 9.12626 28.0128 8.24169C28.0226 7.35712 28.3783 6.51155 29.0039 5.88602C29.6294 5.2605 30.475 4.90476 31.3595 4.89498C32.2441 4.8852 33.0992 5.22216 33.7384 5.8337Z" fill="white" stroke="white" stroke-width="1.5" stroke-linecap="round" stroke-linejoin="round"/>
<path d="M21.5981 22.2126C21.3444 21.9499 21.0409 21.7404 20.7054 21.5963C20.3699 21.4522 20.0091 21.3763 19.6439 21.3732C19.2788 21.37 18.9167 21.4396 18.5787 21.5778C18.2407 21.7161 17.9337 21.9203 17.6755 22.1785C17.4173 22.4367 17.2131 22.7438 17.0748 23.0817C16.9365 23.4197 16.867 23.7818 16.8701 24.1469C16.8733 24.5121 16.9492 24.8729 17.0933 25.2085C17.2374 25.544 17.4469 25.8474 17.7096 26.1011C18.2282 26.602 18.9229 26.8792 19.6439 26.8729C20.365 26.8667 21.0547 26.5775 21.5646 26.0676C22.0744 25.5577 22.3637 24.868 22.3699 24.1469C22.3762 23.4259 22.099 22.7312 21.5981 22.2126Z" stroke="white" stroke-width="1.5" stroke-linecap="round" stroke-linejoin="round"/>
</svg>
