<svg width="710" height="663" viewBox="0 0 710 663" fill="none" xmlns="http://www.w3.org/2000/svg">
<rect width="710" height="663" fill="#0F0F0F"/>
<path d="M146.747 273.59C149.559 273.59 152.017 274.135 154.119 275.224C156.247 276.288 157.881 277.833 159.021 279.86C160.187 281.861 160.769 284.205 160.769 286.89C160.769 289.575 160.187 291.906 159.021 293.882C157.881 295.858 156.247 297.378 154.119 298.442C152.017 299.481 149.559 300 146.747 300H138.121V273.59H146.747ZM146.747 296.466C149.838 296.466 152.207 295.63 153.853 293.958C155.5 292.286 156.323 289.93 156.323 286.89C156.323 283.825 155.5 281.431 153.853 279.708C152.207 277.985 149.838 277.124 146.747 277.124H142.453V296.466H146.747ZM179.266 277.086V284.838H188.386V288.372H179.266V296.466H189.526V300H174.934V273.552H189.526V277.086H179.266ZM213.435 300.266C211.661 300.266 210.065 299.962 208.647 299.354C207.228 298.721 206.113 297.834 205.303 296.694C204.492 295.554 204.087 294.224 204.087 292.704H208.723C208.824 293.844 209.267 294.781 210.053 295.516C210.863 296.251 211.991 296.618 213.435 296.618C214.929 296.618 216.095 296.263 216.931 295.554C217.767 294.819 218.185 293.882 218.185 292.742C218.185 291.855 217.919 291.133 217.387 290.576C216.88 290.019 216.234 289.588 215.449 289.284C214.689 288.98 213.625 288.651 212.257 288.296C210.534 287.84 209.128 287.384 208.039 286.928C206.975 286.447 206.063 285.712 205.303 284.724C204.543 283.736 204.163 282.419 204.163 280.772C204.163 279.252 204.543 277.922 205.303 276.782C206.063 275.642 207.127 274.768 208.495 274.16C209.863 273.552 211.446 273.248 213.245 273.248C215.803 273.248 217.893 273.894 219.515 275.186C221.161 276.453 222.073 278.201 222.251 280.43H217.463C217.387 279.467 216.931 278.644 216.095 277.96C215.259 277.276 214.157 276.934 212.789 276.934C211.547 276.934 210.534 277.251 209.749 277.884C208.963 278.517 208.571 279.429 208.571 280.62C208.571 281.431 208.811 282.102 209.293 282.634C209.799 283.141 210.433 283.546 211.193 283.85C211.953 284.154 212.991 284.483 214.309 284.838C216.057 285.319 217.475 285.801 218.565 286.282C219.679 286.763 220.617 287.511 221.377 288.524C222.162 289.512 222.555 290.842 222.555 292.514C222.555 293.857 222.187 295.123 221.453 296.314C220.743 297.505 219.692 298.467 218.299 299.202C216.931 299.911 215.309 300.266 213.435 300.266ZM241.87 273.59V300H237.538V273.59H241.87ZM276.542 281.19C275.858 279.873 274.908 278.885 273.692 278.226C272.476 277.542 271.07 277.2 269.474 277.2C267.726 277.2 266.168 277.593 264.8 278.378C263.432 279.163 262.355 280.278 261.57 281.722C260.81 283.166 260.43 284.838 260.43 286.738C260.43 288.638 260.81 290.323 261.57 291.792C262.355 293.236 263.432 294.351 264.8 295.136C266.168 295.921 267.726 296.314 269.474 296.314C271.83 296.314 273.743 295.655 275.212 294.338C276.681 293.021 277.581 291.235 277.91 288.98H267.992V285.522H282.546V288.904C282.267 290.956 281.533 292.843 280.342 294.566C279.177 296.289 277.644 297.669 275.744 298.708C273.869 299.721 271.779 300.228 269.474 300.228C266.991 300.228 264.724 299.658 262.672 298.518C260.62 297.353 258.986 295.744 257.77 293.692C256.579 291.64 255.984 289.322 255.984 286.738C255.984 284.154 256.579 281.836 257.77 279.784C258.986 277.732 260.62 276.136 262.672 274.996C264.749 273.831 267.017 273.248 269.474 273.248C272.286 273.248 274.781 273.945 276.96 275.338C279.164 276.706 280.76 278.657 281.748 281.19H276.542ZM318.388 300H314.056L301.022 280.278V300H296.69V273.552H301.022L314.056 293.236V273.552H318.388V300ZM372.158 281.456C372.158 282.799 371.841 284.065 371.208 285.256C370.575 286.447 369.561 287.422 368.168 288.182C366.775 288.917 364.989 289.284 362.81 289.284H358.022V300H353.69V273.59H362.81C364.837 273.59 366.547 273.945 367.94 274.654C369.359 275.338 370.41 276.275 371.094 277.466C371.803 278.657 372.158 279.987 372.158 281.456ZM362.81 285.75C364.457 285.75 365.685 285.383 366.496 284.648C367.307 283.888 367.712 282.824 367.712 281.456C367.712 278.568 366.078 277.124 362.81 277.124H358.022V285.75H362.81ZM402.083 294.604H391.025L389.125 300H384.603L394.065 273.552H399.081L408.543 300H403.983L402.083 294.604ZM400.867 291.07L396.573 278.796L392.241 291.07H400.867ZM444.226 300H439.894L426.86 280.278V300H422.528V273.552H426.86L439.894 293.236V273.552H444.226V300ZM476.848 273.59V277.124H469.818V300H465.486V277.124H458.418V273.59H476.848ZM512.196 273.59V300H507.864V288.448H495.438V300H491.106V273.59H495.438V284.914H507.864V273.59H512.196ZM532.102 277.086V284.838H541.222V288.372H532.102V296.466H542.362V300H527.77V273.552H542.362V277.086H532.102ZM571.287 300L565.207 289.436H561.901V300H557.569V273.59H566.689C568.715 273.59 570.425 273.945 571.819 274.654C573.237 275.363 574.289 276.313 574.973 277.504C575.682 278.695 576.037 280.025 576.037 281.494C576.037 283.217 575.53 284.787 574.517 286.206C573.529 287.599 571.996 288.549 569.919 289.056L576.455 300H571.287ZM561.901 285.978H566.689C568.31 285.978 569.526 285.573 570.337 284.762C571.173 283.951 571.591 282.862 571.591 281.494C571.591 280.126 571.185 279.062 570.375 278.302C569.564 277.517 568.335 277.124 566.689 277.124H561.901V285.978Z" fill="white"/>
<path d="M160.915 357.14C159.622 357.14 158.448 356.84 157.395 356.24C156.342 355.627 155.508 354.78 154.895 353.7C154.295 352.607 153.995 351.373 153.995 350C153.995 348.627 154.295 347.4 154.895 346.32C155.508 345.227 156.342 344.38 157.395 343.78C158.448 343.167 159.622 342.86 160.915 342.86C162.222 342.86 163.402 343.167 164.455 343.78C165.508 344.38 166.335 345.227 166.935 346.32C167.535 347.4 167.835 348.627 167.835 350C167.835 351.373 167.535 352.607 166.935 353.7C166.335 354.78 165.508 355.627 164.455 356.24C163.402 356.84 162.222 357.14 160.915 357.14ZM160.915 355.92C161.955 355.92 162.888 355.68 163.715 355.2C164.542 354.72 165.195 354.033 165.675 353.14C166.155 352.233 166.395 351.187 166.395 350C166.395 348.813 166.155 347.773 165.675 346.88C165.195 345.987 164.542 345.3 163.715 344.82C162.888 344.34 161.955 344.1 160.915 344.1C159.875 344.1 158.942 344.34 158.115 344.82C157.288 345.3 156.635 345.987 156.155 346.88C155.675 347.773 155.435 348.813 155.435 350C155.435 351.187 155.675 352.233 156.155 353.14C156.635 354.033 157.288 354.72 158.115 355.2C158.942 355.68 159.875 355.92 160.915 355.92ZM180.857 346.08V357H179.457V355.08C179.137 355.76 178.644 356.28 177.977 356.64C177.31 357 176.564 357.18 175.737 357.18C174.43 357.18 173.364 356.78 172.537 355.98C171.71 355.167 171.297 353.993 171.297 352.46V346.08H172.677V352.3C172.677 353.487 172.97 354.393 173.557 355.02C174.157 355.647 174.97 355.96 175.997 355.96C177.05 355.96 177.89 355.627 178.517 354.96C179.144 354.293 179.457 353.313 179.457 352.02V346.08H180.857ZM186.453 348.02C186.76 347.34 187.226 346.813 187.853 346.44C188.493 346.067 189.273 345.88 190.193 345.88V347.34H189.813C188.8 347.34 187.986 347.613 187.373 348.16C186.76 348.707 186.453 349.62 186.453 350.9V357H185.053V346.08H186.453V348.02ZM199.148 351.52C199.148 350.4 199.374 349.42 199.828 348.58C200.281 347.727 200.901 347.073 201.688 346.62C202.488 346.153 203.388 345.92 204.388 345.92C205.348 345.92 206.214 346.153 206.988 346.62C207.761 347.087 208.328 347.693 208.688 348.44V342.2H210.088V357H208.688V354.56C208.354 355.32 207.808 355.947 207.048 356.44C206.288 356.92 205.394 357.16 204.368 357.16C203.368 357.16 202.468 356.927 201.668 356.46C200.881 355.993 200.261 355.333 199.808 354.48C199.368 353.627 199.148 352.64 199.148 351.52ZM208.688 351.54C208.688 350.66 208.508 349.887 208.148 349.22C207.788 348.553 207.294 348.04 206.668 347.68C206.054 347.32 205.374 347.14 204.628 347.14C203.854 347.14 203.161 347.313 202.548 347.66C201.934 348.007 201.448 348.513 201.088 349.18C200.741 349.833 200.568 350.613 200.568 351.52C200.568 352.413 200.741 353.2 201.088 353.88C201.448 354.547 201.934 355.06 202.548 355.42C203.161 355.767 203.854 355.94 204.628 355.94C205.374 355.94 206.054 355.76 206.668 355.4C207.294 355.04 207.788 354.527 208.148 353.86C208.508 353.193 208.688 352.42 208.688 351.54ZM224.164 350.98C224.164 351.46 224.15 351.827 224.124 352.08H215.064C215.104 352.907 215.304 353.613 215.664 354.2C216.024 354.787 216.497 355.233 217.084 355.54C217.67 355.833 218.31 355.98 219.004 355.98C219.91 355.98 220.67 355.76 221.284 355.32C221.91 354.88 222.324 354.287 222.524 353.54H224.004C223.737 354.607 223.164 355.48 222.284 356.16C221.417 356.827 220.324 357.16 219.004 357.16C217.977 357.16 217.057 356.933 216.244 356.48C215.43 356.013 214.79 355.36 214.324 354.52C213.87 353.667 213.644 352.673 213.644 351.54C213.644 350.407 213.87 349.413 214.324 348.56C214.777 347.707 215.41 347.053 216.224 346.6C217.037 346.147 217.964 345.92 219.004 345.92C220.044 345.92 220.95 346.147 221.724 346.6C222.51 347.053 223.11 347.667 223.524 348.44C223.95 349.2 224.164 350.047 224.164 350.98ZM222.744 350.94C222.757 350.127 222.59 349.433 222.244 348.86C221.91 348.287 221.45 347.853 220.864 347.56C220.277 347.267 219.637 347.12 218.944 347.12C217.904 347.12 217.017 347.453 216.284 348.12C215.55 348.787 215.144 349.727 215.064 350.94H222.744ZM231.485 357.16C230.232 357.16 229.205 356.873 228.405 356.3C227.618 355.713 227.178 354.92 227.085 353.92H228.525C228.592 354.533 228.878 355.033 229.385 355.42C229.905 355.793 230.598 355.98 231.465 355.98C232.225 355.98 232.818 355.8 233.245 355.44C233.685 355.08 233.905 354.633 233.905 354.1C233.905 353.727 233.785 353.42 233.545 353.18C233.305 352.94 232.998 352.753 232.625 352.62C232.265 352.473 231.772 352.32 231.145 352.16C230.332 351.947 229.672 351.733 229.165 351.52C228.658 351.307 228.225 350.993 227.865 350.58C227.518 350.153 227.345 349.587 227.345 348.88C227.345 348.347 227.505 347.853 227.825 347.4C228.145 346.947 228.598 346.587 229.185 346.32C229.772 346.053 230.438 345.92 231.185 345.92C232.358 345.92 233.305 346.22 234.025 346.82C234.745 347.407 235.132 348.22 235.185 349.26H233.785C233.745 348.62 233.492 348.107 233.025 347.72C232.572 347.32 231.945 347.12 231.145 347.12C230.438 347.12 229.865 347.287 229.425 347.62C228.985 347.953 228.765 348.367 228.765 348.86C228.765 349.287 228.892 349.64 229.145 349.92C229.412 350.187 229.738 350.4 230.125 350.56C230.512 350.707 231.032 350.873 231.685 351.06C232.472 351.273 233.098 351.48 233.565 351.68C234.032 351.88 234.432 352.173 234.765 352.56C235.098 352.947 235.272 353.46 235.285 354.1C235.285 354.687 235.125 355.213 234.805 355.68C234.485 356.133 234.038 356.493 233.465 356.76C232.892 357.027 232.232 357.16 231.485 357.16ZM239.62 344.02C239.34 344.02 239.1 343.92 238.9 343.72C238.7 343.52 238.6 343.273 238.6 342.98C238.6 342.687 238.7 342.447 238.9 342.26C239.1 342.06 239.34 341.96 239.62 341.96C239.9 341.96 240.14 342.06 240.34 342.26C240.54 342.447 240.64 342.687 240.64 342.98C240.64 343.273 240.54 343.52 240.34 343.72C240.14 343.92 239.9 344.02 239.62 344.02ZM240.32 346.08V357H238.92V346.08H240.32ZM249.071 345.92C250.097 345.92 250.991 346.16 251.751 346.64C252.511 347.12 253.057 347.727 253.391 348.46V346.08H254.791V357.28C254.791 358.28 254.571 359.167 254.131 359.94C253.704 360.713 253.104 361.307 252.331 361.72C251.557 362.147 250.677 362.36 249.691 362.36C248.291 362.36 247.124 362.027 246.191 361.36C245.271 360.693 244.697 359.787 244.471 358.64H245.851C246.091 359.4 246.544 360.007 247.211 360.46C247.891 360.913 248.717 361.14 249.691 361.14C250.397 361.14 251.031 360.987 251.591 360.68C252.151 360.387 252.591 359.947 252.911 359.36C253.231 358.773 253.391 358.08 253.391 357.28V354.58C253.044 355.327 252.491 355.947 251.731 356.44C250.984 356.92 250.097 357.16 249.071 357.16C248.071 357.16 247.171 356.927 246.371 356.46C245.584 355.993 244.964 355.333 244.511 354.48C244.071 353.627 243.851 352.64 243.851 351.52C243.851 350.4 244.071 349.42 244.511 348.58C244.964 347.727 245.584 347.073 246.371 346.62C247.171 346.153 248.071 345.92 249.071 345.92ZM253.391 351.54C253.391 350.66 253.211 349.887 252.851 349.22C252.491 348.553 251.997 348.04 251.371 347.68C250.757 347.32 250.077 347.14 249.331 347.14C248.557 347.14 247.864 347.313 247.251 347.66C246.637 348.007 246.151 348.513 245.791 349.18C245.444 349.833 245.271 350.613 245.271 351.52C245.271 352.413 245.444 353.2 245.791 353.88C246.151 354.547 246.637 355.06 247.251 355.42C247.864 355.767 248.557 355.94 249.331 355.94C250.077 355.94 250.757 355.76 251.371 355.4C251.997 355.04 252.491 354.527 252.851 353.86C253.211 353.193 253.391 352.42 253.391 351.54ZM264.107 345.88C265.413 345.88 266.48 346.287 267.307 347.1C268.133 347.9 268.547 349.067 268.547 350.6V357H267.167V350.76C267.167 349.573 266.867 348.667 266.267 348.04C265.68 347.413 264.873 347.1 263.847 347.1C262.793 347.1 261.953 347.433 261.327 348.1C260.7 348.767 260.387 349.747 260.387 351.04V357H258.987V346.08H260.387V347.94C260.733 347.273 261.233 346.767 261.887 346.42C262.54 346.06 263.28 345.88 264.107 345.88ZM282.891 357.16C281.638 357.16 280.611 356.873 279.811 356.3C279.025 355.713 278.585 354.92 278.491 353.92H279.931C279.998 354.533 280.285 355.033 280.791 355.42C281.311 355.793 282.005 355.98 282.871 355.98C283.631 355.98 284.225 355.8 284.651 355.44C285.091 355.08 285.311 354.633 285.311 354.1C285.311 353.727 285.191 353.42 284.951 353.18C284.711 352.94 284.405 352.753 284.031 352.62C283.671 352.473 283.178 352.32 282.551 352.16C281.738 351.947 281.078 351.733 280.571 351.52C280.065 351.307 279.631 350.993 279.271 350.58C278.925 350.153 278.751 349.587 278.751 348.88C278.751 348.347 278.911 347.853 279.231 347.4C279.551 346.947 280.005 346.587 280.591 346.32C281.178 346.053 281.845 345.92 282.591 345.92C283.765 345.92 284.711 346.22 285.431 346.82C286.151 347.407 286.538 348.22 286.591 349.26H285.191C285.151 348.62 284.898 348.107 284.431 347.72C283.978 347.32 283.351 347.12 282.551 347.12C281.845 347.12 281.271 347.287 280.831 347.62C280.391 347.953 280.171 348.367 280.171 348.86C280.171 349.287 280.298 349.64 280.551 349.92C280.818 350.187 281.145 350.4 281.531 350.56C281.918 350.707 282.438 350.873 283.091 351.06C283.878 351.273 284.505 351.48 284.971 351.68C285.438 351.88 285.838 352.173 286.171 352.56C286.505 352.947 286.678 353.46 286.691 354.1C286.691 354.687 286.531 355.213 286.211 355.68C285.891 356.133 285.445 356.493 284.871 356.76C284.298 357.027 283.638 357.16 282.891 357.16ZM299.327 346.08L292.847 362.14H291.387L293.507 356.94L289.027 346.08H290.567L294.287 355.4L297.887 346.08H299.327ZM305.985 357.16C304.732 357.16 303.705 356.873 302.905 356.3C302.118 355.713 301.678 354.92 301.585 353.92H303.025C303.092 354.533 303.378 355.033 303.885 355.42C304.405 355.793 305.098 355.98 305.965 355.98C306.725 355.98 307.318 355.8 307.745 355.44C308.185 355.08 308.405 354.633 308.405 354.1C308.405 353.727 308.285 353.42 308.045 353.18C307.805 352.94 307.498 352.753 307.125 352.62C306.765 352.473 306.272 352.32 305.645 352.16C304.832 351.947 304.172 351.733 303.665 351.52C303.158 351.307 302.725 350.993 302.365 350.58C302.018 350.153 301.845 349.587 301.845 348.88C301.845 348.347 302.005 347.853 302.325 347.4C302.645 346.947 303.098 346.587 303.685 346.32C304.272 346.053 304.938 345.92 305.685 345.92C306.858 345.92 307.805 346.22 308.525 346.82C309.245 347.407 309.632 348.22 309.685 349.26H308.285C308.245 348.62 307.992 348.107 307.525 347.72C307.072 347.32 306.445 347.12 305.645 347.12C304.938 347.12 304.365 347.287 303.925 347.62C303.485 347.953 303.265 348.367 303.265 348.86C303.265 349.287 303.392 349.64 303.645 349.92C303.912 350.187 304.238 350.4 304.625 350.56C305.012 350.707 305.532 350.873 306.185 351.06C306.972 351.273 307.598 351.48 308.065 351.68C308.532 351.88 308.932 352.173 309.265 352.56C309.598 352.947 309.772 353.46 309.785 354.1C309.785 354.687 309.625 355.213 309.305 355.68C308.985 356.133 308.538 356.493 307.965 356.76C307.392 357.027 306.732 357.16 305.985 357.16ZM315.24 347.26V354.04C315.24 354.707 315.367 355.167 315.62 355.42C315.874 355.673 316.32 355.8 316.96 355.8H318.24V357H316.74C315.754 357 315.02 356.773 314.54 356.32C314.06 355.853 313.82 355.093 313.82 354.04V347.26H312.3V346.08H313.82V343.34H315.24V346.08H318.24V347.26H315.24ZM331.429 350.98C331.429 351.46 331.416 351.827 331.389 352.08H322.329C322.369 352.907 322.569 353.613 322.929 354.2C323.289 354.787 323.763 355.233 324.349 355.54C324.936 355.833 325.576 355.98 326.269 355.98C327.176 355.98 327.936 355.76 328.549 355.32C329.176 354.88 329.589 354.287 329.789 353.54H331.269C331.003 354.607 330.429 355.48 329.549 356.16C328.683 356.827 327.589 357.16 326.269 357.16C325.243 357.16 324.323 356.933 323.509 356.48C322.696 356.013 322.056 355.36 321.589 354.52C321.136 353.667 320.909 352.673 320.909 351.54C320.909 350.407 321.136 349.413 321.589 348.56C322.043 347.707 322.676 347.053 323.489 346.6C324.303 346.147 325.229 345.92 326.269 345.92C327.309 345.92 328.216 346.147 328.989 346.6C329.776 347.053 330.376 347.667 330.789 348.44C331.216 349.2 331.429 350.047 331.429 350.98ZM330.009 350.94C330.023 350.127 329.856 349.433 329.509 348.86C329.176 348.287 328.716 347.853 328.129 347.56C327.543 347.267 326.903 347.12 326.209 347.12C325.169 347.12 324.283 347.453 323.549 348.12C322.816 348.787 322.409 349.727 322.329 350.94H330.009ZM347.991 345.88C349.271 345.88 350.311 346.287 351.111 347.1C351.924 347.9 352.331 349.067 352.331 350.6V357H350.951V350.76C350.951 349.573 350.664 348.667 350.091 348.04C349.517 347.413 348.737 347.1 347.751 347.1C346.724 347.1 345.904 347.44 345.291 348.12C344.677 348.8 344.371 349.787 344.371 351.08V357H342.991V350.76C342.991 349.573 342.704 348.667 342.131 348.04C341.557 347.413 340.771 347.1 339.771 347.1C338.744 347.1 337.924 347.44 337.311 348.12C336.697 348.8 336.391 349.787 336.391 351.08V357H334.991V346.08H336.391V347.96C336.737 347.28 337.231 346.767 337.871 346.42C338.511 346.06 339.224 345.88 340.011 345.88C340.957 345.88 341.784 346.107 342.491 346.56C343.211 347.013 343.731 347.68 344.051 348.56C344.344 347.693 344.844 347.033 345.551 346.58C346.271 346.113 347.084 345.88 347.991 345.88ZM360.2 357.16C358.947 357.16 357.92 356.873 357.12 356.3C356.333 355.713 355.893 354.92 355.8 353.92H357.24C357.307 354.533 357.593 355.033 358.1 355.42C358.62 355.793 359.313 355.98 360.18 355.98C360.94 355.98 361.533 355.8 361.96 355.44C362.4 355.08 362.62 354.633 362.62 354.1C362.62 353.727 362.5 353.42 362.26 353.18C362.02 352.94 361.713 352.753 361.34 352.62C360.98 352.473 360.487 352.32 359.86 352.16C359.047 351.947 358.387 351.733 357.88 351.52C357.373 351.307 356.94 350.993 356.58 350.58C356.233 350.153 356.06 349.587 356.06 348.88C356.06 348.347 356.22 347.853 356.54 347.4C356.86 346.947 357.313 346.587 357.9 346.32C358.487 346.053 359.153 345.92 359.9 345.92C361.073 345.92 362.02 346.22 362.74 346.82C363.46 347.407 363.847 348.22 363.9 349.26H362.5C362.46 348.62 362.207 348.107 361.74 347.72C361.287 347.32 360.66 347.12 359.86 347.12C359.153 347.12 358.58 347.287 358.14 347.62C357.7 347.953 357.48 348.367 357.48 348.86C357.48 349.287 357.607 349.64 357.86 349.92C358.127 350.187 358.453 350.4 358.84 350.56C359.227 350.707 359.747 350.873 360.4 351.06C361.187 351.273 361.813 351.48 362.28 351.68C362.747 351.88 363.147 352.173 363.48 352.56C363.813 352.947 363.987 353.46 364 354.1C364 354.687 363.84 355.213 363.52 355.68C363.2 356.133 362.753 356.493 362.18 356.76C361.607 357.027 360.947 357.16 360.2 357.16ZM375.943 347.26V354.04C375.943 354.707 376.07 355.167 376.323 355.42C376.577 355.673 377.023 355.8 377.663 355.8H378.943V357H377.443C376.457 357 375.723 356.773 375.243 356.32C374.763 355.853 374.523 355.093 374.523 354.04V347.26H373.003V346.08H374.523V343.34H375.943V346.08H378.943V347.26H375.943ZM387.452 345.88C388.279 345.88 389.019 346.053 389.672 346.4C390.339 346.747 390.859 347.28 391.232 348C391.619 348.707 391.812 349.573 391.812 350.6V357H390.432V350.76C390.432 349.573 390.132 348.667 389.532 348.04C388.946 347.413 388.139 347.1 387.112 347.1C386.059 347.1 385.219 347.433 384.592 348.1C383.966 348.767 383.652 349.747 383.652 351.04V357H382.252V342.2H383.652V347.94C383.999 347.287 384.506 346.78 385.172 346.42C385.852 346.06 386.612 345.88 387.452 345.88ZM395.269 351.52C395.269 350.4 395.489 349.42 395.929 348.58C396.382 347.727 397.002 347.073 397.789 346.62C398.589 346.153 399.489 345.92 400.489 345.92C401.529 345.92 402.422 346.16 403.169 346.64C403.929 347.12 404.475 347.733 404.809 348.48V346.08H406.209V357H404.809V354.58C404.462 355.327 403.909 355.947 403.149 356.44C402.402 356.92 401.509 357.16 400.469 357.16C399.482 357.16 398.589 356.927 397.789 356.46C397.002 355.993 396.382 355.333 395.929 354.48C395.489 353.627 395.269 352.64 395.269 351.52ZM404.809 351.54C404.809 350.66 404.629 349.887 404.269 349.22C403.909 348.553 403.415 348.04 402.789 347.68C402.175 347.32 401.495 347.14 400.749 347.14C399.975 347.14 399.282 347.313 398.669 347.66C398.055 348.007 397.569 348.513 397.209 349.18C396.862 349.833 396.689 350.613 396.689 351.52C396.689 352.413 396.862 353.2 397.209 353.88C397.569 354.547 398.055 355.06 398.669 355.42C399.282 355.767 399.975 355.94 400.749 355.94C401.495 355.94 402.175 355.76 402.789 355.4C403.415 355.04 403.909 354.527 404.269 353.86C404.629 353.193 404.809 352.42 404.809 351.54ZM412.225 347.26V354.04C412.225 354.707 412.351 355.167 412.605 355.42C412.858 355.673 413.305 355.8 413.945 355.8H415.225V357H413.725C412.738 357 412.005 356.773 411.525 356.32C411.045 355.853 410.805 355.093 410.805 354.04V347.26H409.285V346.08H410.805V343.34H412.225V346.08H415.225V347.26H412.225ZM425.722 344.02C425.442 344.02 425.202 343.92 425.002 343.72C424.802 343.52 424.702 343.273 424.702 342.98C424.702 342.687 424.802 342.447 425.002 342.26C425.202 342.06 425.442 341.96 425.722 341.96C426.002 341.96 426.242 342.06 426.442 342.26C426.642 342.447 426.742 342.687 426.742 342.98C426.742 343.273 426.642 343.52 426.442 343.72C426.242 343.92 426.002 344.02 425.722 344.02ZM426.422 346.08V357H425.022V346.08H426.422ZM443.592 345.88C444.872 345.88 445.912 346.287 446.712 347.1C447.526 347.9 447.932 349.067 447.932 350.6V357H446.552V350.76C446.552 349.573 446.266 348.667 445.692 348.04C445.119 347.413 444.339 347.1 443.352 347.1C442.326 347.1 441.506 347.44 440.892 348.12C440.279 348.8 439.972 349.787 439.972 351.08V357H438.592V350.76C438.592 349.573 438.306 348.667 437.732 348.04C437.159 347.413 436.372 347.1 435.372 347.1C434.346 347.1 433.526 347.44 432.912 348.12C432.299 348.8 431.992 349.787 431.992 351.08V357H430.592V346.08H431.992V347.96C432.339 347.28 432.832 346.767 433.472 346.42C434.112 346.06 434.826 345.88 435.612 345.88C436.559 345.88 437.386 346.107 438.092 346.56C438.812 347.013 439.332 347.68 439.652 348.56C439.946 347.693 440.446 347.033 441.152 346.58C441.872 346.113 442.686 345.88 443.592 345.88ZM453.421 348.48C453.768 347.747 454.315 347.14 455.061 346.66C455.821 346.167 456.721 345.92 457.761 345.92C458.748 345.92 459.635 346.153 460.421 346.62C461.221 347.073 461.841 347.727 462.281 348.58C462.735 349.42 462.961 350.4 462.961 351.52C462.961 352.64 462.735 353.627 462.281 354.48C461.841 355.333 461.221 355.993 460.421 356.46C459.635 356.927 458.748 357.16 457.761 357.16C456.735 357.16 455.841 356.92 455.081 356.44C454.321 355.947 453.768 355.333 453.421 354.6V362.16H452.041V346.08H453.421V348.48ZM461.541 351.52C461.541 350.613 461.361 349.833 461.001 349.18C460.655 348.513 460.175 348.007 459.561 347.66C458.948 347.313 458.255 347.14 457.481 347.14C456.735 347.14 456.048 347.32 455.421 347.68C454.808 348.04 454.321 348.553 453.961 349.22C453.601 349.887 453.421 350.66 453.421 351.54C453.421 352.42 453.601 353.193 453.961 353.86C454.321 354.527 454.808 355.04 455.421 355.4C456.048 355.76 456.735 355.94 457.481 355.94C458.255 355.94 458.948 355.767 459.561 355.42C460.175 355.06 460.655 354.547 461.001 353.88C461.361 353.2 461.541 352.413 461.541 351.52ZM465.898 351.52C465.898 350.4 466.118 349.42 466.558 348.58C467.011 347.727 467.631 347.073 468.418 346.62C469.218 346.153 470.118 345.92 471.118 345.92C472.158 345.92 473.051 346.16 473.798 346.64C474.558 347.12 475.104 347.733 475.438 348.48V346.08H476.838V357H475.438V354.58C475.091 355.327 474.538 355.947 473.778 356.44C473.031 356.92 472.138 357.16 471.098 357.16C470.111 357.16 469.218 356.927 468.418 356.46C467.631 355.993 467.011 355.333 466.558 354.48C466.118 353.627 465.898 352.64 465.898 351.52ZM475.438 351.54C475.438 350.66 475.258 349.887 474.898 349.22C474.538 348.553 474.044 348.04 473.418 347.68C472.804 347.32 472.124 347.14 471.378 347.14C470.604 347.14 469.911 347.313 469.298 347.66C468.684 348.007 468.198 348.513 467.838 349.18C467.491 349.833 467.318 350.613 467.318 351.52C467.318 352.413 467.491 353.2 467.838 353.88C468.198 354.547 468.684 355.06 469.298 355.42C469.911 355.767 470.604 355.94 471.378 355.94C472.124 355.94 472.804 355.76 473.418 355.4C474.044 355.04 474.538 354.527 474.898 353.86C475.258 353.193 475.438 352.42 475.438 351.54ZM480.394 351.54C480.394 350.407 480.62 349.42 481.074 348.58C481.527 347.727 482.154 347.073 482.954 346.62C483.754 346.153 484.667 345.92 485.694 345.92C487.04 345.92 488.147 346.253 489.014 346.92C489.894 347.587 490.46 348.493 490.714 349.64H489.214C489.027 348.853 488.62 348.24 487.994 347.8C487.38 347.347 486.614 347.12 485.694 347.12C484.96 347.12 484.3 347.287 483.714 347.62C483.127 347.953 482.66 348.453 482.314 349.12C481.98 349.773 481.814 350.58 481.814 351.54C481.814 352.5 481.98 353.313 482.314 353.98C482.66 354.647 483.127 355.147 483.714 355.48C484.3 355.813 484.96 355.98 485.694 355.98C486.614 355.98 487.38 355.76 487.994 355.32C488.62 354.867 489.027 354.24 489.214 353.44H490.714C490.46 354.56 489.894 355.46 489.014 356.14C488.134 356.82 487.027 357.16 485.694 357.16C484.667 357.16 483.754 356.933 482.954 356.48C482.154 356.013 481.527 355.36 481.074 354.52C480.62 353.667 480.394 352.673 480.394 351.54ZM496.119 347.26V354.04C496.119 354.707 496.246 355.167 496.499 355.42C496.753 355.673 497.199 355.8 497.839 355.8H499.119V357H497.619C496.633 357 495.899 356.773 495.419 356.32C494.939 355.853 494.699 355.093 494.699 354.04V347.26H493.179V346.08H494.699V343.34H496.119V346.08H499.119V347.26H496.119ZM508.276 351.52C508.276 350.4 508.496 349.42 508.936 348.58C509.39 347.727 510.01 347.073 510.796 346.62C511.596 346.153 512.496 345.92 513.496 345.92C514.536 345.92 515.43 346.16 516.176 346.64C516.936 347.12 517.483 347.733 517.816 348.48V346.08H519.216V357H517.816V354.58C517.47 355.327 516.916 355.947 516.156 356.44C515.41 356.92 514.516 357.16 513.476 357.16C512.49 357.16 511.596 356.927 510.796 356.46C510.01 355.993 509.39 355.333 508.936 354.48C508.496 353.627 508.276 352.64 508.276 351.52ZM517.816 351.54C517.816 350.66 517.636 349.887 517.276 349.22C516.916 348.553 516.423 348.04 515.796 347.68C515.183 347.32 514.503 347.14 513.756 347.14C512.983 347.14 512.29 347.313 511.676 347.66C511.063 348.007 510.576 348.513 510.216 349.18C509.87 349.833 509.696 350.613 509.696 351.52C509.696 352.413 509.87 353.2 510.216 353.88C510.576 354.547 511.063 355.06 511.676 355.42C512.29 355.767 512.983 355.94 513.756 355.94C514.503 355.94 515.183 355.76 515.796 355.4C516.423 355.04 516.916 354.527 517.276 353.86C517.636 353.193 517.816 352.42 517.816 351.54ZM528.533 345.88C529.839 345.88 530.906 346.287 531.733 347.1C532.559 347.9 532.973 349.067 532.973 350.6V357H531.593V350.76C531.593 349.573 531.293 348.667 530.693 348.04C530.106 347.413 529.299 347.1 528.273 347.1C527.219 347.1 526.379 347.433 525.753 348.1C525.126 348.767 524.813 349.747 524.813 351.04V357H523.413V346.08H524.813V347.94C525.159 347.273 525.659 346.767 526.313 346.42C526.966 346.06 527.706 345.88 528.533 345.88ZM536.429 351.52C536.429 350.4 536.655 349.42 537.109 348.58C537.562 347.727 538.182 347.073 538.969 346.62C539.769 346.153 540.669 345.92 541.669 345.92C542.629 345.92 543.495 346.153 544.269 346.62C545.042 347.087 545.609 347.693 545.969 348.44V342.2H547.369V357H545.969V354.56C545.635 355.32 545.089 355.947 544.329 356.44C543.569 356.92 542.675 357.16 541.649 357.16C540.649 357.16 539.749 356.927 538.949 356.46C538.162 355.993 537.542 355.333 537.089 354.48C536.649 353.627 536.429 352.64 536.429 351.52ZM545.969 351.54C545.969 350.66 545.789 349.887 545.429 349.22C545.069 348.553 544.575 348.04 543.949 347.68C543.335 347.32 542.655 347.14 541.909 347.14C541.135 347.14 540.442 347.313 539.829 347.66C539.215 348.007 538.729 348.513 538.369 349.18C538.022 349.833 537.849 350.613 537.849 351.52C537.849 352.413 538.022 353.2 538.369 353.88C538.729 354.547 539.215 355.06 539.829 355.42C540.442 355.767 541.135 355.94 541.909 355.94C542.655 355.94 543.335 355.76 543.949 355.4C544.575 355.04 545.069 354.527 545.429 353.86C545.789 353.193 545.969 352.42 545.969 351.54ZM203.433 381.02C203.153 381.02 202.913 380.92 202.713 380.72C202.513 380.52 202.413 380.273 202.413 379.98C202.413 379.687 202.513 379.447 202.713 379.26C202.913 379.06 203.153 378.96 203.433 378.96C203.713 378.96 203.953 379.06 204.153 379.26C204.353 379.447 204.453 379.687 204.453 379.98C204.453 380.273 204.353 380.52 204.153 380.72C203.953 380.92 203.713 381.02 203.433 381.02ZM204.133 383.08V394H202.733V383.08H204.133ZM221.303 382.88C222.583 382.88 223.623 383.287 224.423 384.1C225.236 384.9 225.643 386.067 225.643 387.6V394H224.263V387.76C224.263 386.573 223.976 385.667 223.403 385.04C222.83 384.413 222.05 384.1 221.063 384.1C220.036 384.1 219.216 384.44 218.603 385.12C217.99 385.8 217.683 386.787 217.683 388.08V394H216.303V387.76C216.303 386.573 216.016 385.667 215.443 385.04C214.87 384.413 214.083 384.1 213.083 384.1C212.056 384.1 211.236 384.44 210.623 385.12C210.01 385.8 209.703 386.787 209.703 388.08V394H208.303V383.08H209.703V384.96C210.05 384.28 210.543 383.767 211.183 383.42C211.823 383.06 212.536 382.88 213.323 382.88C214.27 382.88 215.096 383.107 215.803 383.56C216.523 384.013 217.043 384.68 217.363 385.56C217.656 384.693 218.156 384.033 218.863 383.58C219.583 383.113 220.396 382.88 221.303 382.88ZM231.132 385.48C231.479 384.747 232.026 384.14 232.772 383.66C233.532 383.167 234.432 382.92 235.472 382.92C236.459 382.92 237.346 383.153 238.132 383.62C238.932 384.073 239.552 384.727 239.992 385.58C240.446 386.42 240.672 387.4 240.672 388.52C240.672 389.64 240.446 390.627 239.992 391.48C239.552 392.333 238.932 392.993 238.132 393.46C237.346 393.927 236.459 394.16 235.472 394.16C234.446 394.16 233.552 393.92 232.792 393.44C232.032 392.947 231.479 392.333 231.132 391.6V399.16H229.752V383.08H231.132V385.48ZM239.252 388.52C239.252 387.613 239.072 386.833 238.712 386.18C238.366 385.513 237.886 385.007 237.272 384.66C236.659 384.313 235.966 384.14 235.192 384.14C234.446 384.14 233.759 384.32 233.132 384.68C232.519 385.04 232.032 385.553 231.672 386.22C231.312 386.887 231.132 387.66 231.132 388.54C231.132 389.42 231.312 390.193 231.672 390.86C232.032 391.527 232.519 392.04 233.132 392.4C233.759 392.76 234.446 392.94 235.192 392.94C235.966 392.94 236.659 392.767 237.272 392.42C237.886 392.06 238.366 391.547 238.712 390.88C239.072 390.2 239.252 389.413 239.252 388.52ZM245.648 385.02C245.955 384.34 246.422 383.813 247.048 383.44C247.688 383.067 248.468 382.88 249.388 382.88V384.34H249.008C247.995 384.34 247.182 384.613 246.568 385.16C245.955 385.707 245.648 386.62 245.648 387.9V394H244.248V383.08H245.648V385.02ZM257.275 394.16C256.248 394.16 255.321 393.933 254.495 393.48C253.681 393.013 253.035 392.36 252.555 391.52C252.088 390.667 251.855 389.673 251.855 388.54C251.855 387.407 252.095 386.42 252.575 385.58C253.055 384.727 253.708 384.073 254.535 383.62C255.361 383.153 256.288 382.92 257.315 382.92C258.341 382.92 259.268 383.153 260.095 383.62C260.935 384.073 261.588 384.727 262.055 385.58C262.535 386.42 262.775 387.407 262.775 388.54C262.775 389.66 262.535 390.647 262.055 391.5C261.575 392.353 260.915 393.013 260.075 393.48C259.235 393.933 258.301 394.16 257.275 394.16ZM257.275 392.94C257.995 392.94 258.661 392.78 259.275 392.46C259.888 392.127 260.381 391.633 260.755 390.98C261.141 390.313 261.335 389.5 261.335 388.54C261.335 387.58 261.148 386.773 260.775 386.12C260.401 385.453 259.908 384.96 259.295 384.64C258.681 384.307 258.015 384.14 257.295 384.14C256.575 384.14 255.908 384.307 255.295 384.64C254.681 384.96 254.188 385.453 253.815 386.12C253.455 386.773 253.275 387.58 253.275 388.54C253.275 389.5 253.455 390.313 253.815 390.98C254.188 391.633 254.675 392.127 255.275 392.46C255.888 392.78 256.555 392.94 257.275 392.94ZM270.207 392.64L273.887 383.08H275.367L270.987 394H269.407L265.027 383.08H266.527L270.207 392.64ZM288.144 387.98C288.144 388.46 288.131 388.827 288.104 389.08H279.044C279.084 389.907 279.284 390.613 279.644 391.2C280.004 391.787 280.477 392.233 281.064 392.54C281.651 392.833 282.291 392.98 282.984 392.98C283.891 392.98 284.651 392.76 285.264 392.32C285.891 391.88 286.304 391.287 286.504 390.54H287.984C287.717 391.607 287.144 392.48 286.264 393.16C285.397 393.827 284.304 394.16 282.984 394.16C281.957 394.16 281.037 393.933 280.224 393.48C279.411 393.013 278.771 392.36 278.304 391.52C277.851 390.667 277.624 389.673 277.624 388.54C277.624 387.407 277.851 386.413 278.304 385.56C278.757 384.707 279.391 384.053 280.204 383.6C281.017 383.147 281.944 382.92 282.984 382.92C284.024 382.92 284.931 383.147 285.704 383.6C286.491 384.053 287.091 384.667 287.504 385.44C287.931 386.2 288.144 387.047 288.144 387.98ZM286.724 387.94C286.737 387.127 286.571 386.433 286.224 385.86C285.891 385.287 285.431 384.853 284.844 384.56C284.257 384.267 283.617 384.12 282.924 384.12C281.884 384.12 280.997 384.453 280.264 385.12C279.531 385.787 279.124 386.727 279.044 387.94H286.724ZM300.014 384.26V391.04C300.014 391.707 300.14 392.167 300.394 392.42C300.647 392.673 301.094 392.8 301.734 392.8H303.014V394H301.514C300.527 394 299.794 393.773 299.314 393.32C298.834 392.853 298.594 392.093 298.594 391.04V384.26H297.074V383.08H298.594V380.34H300.014V383.08H303.014V384.26H300.014ZM311.523 382.88C312.349 382.88 313.089 383.053 313.743 383.4C314.409 383.747 314.929 384.28 315.303 385C315.689 385.707 315.883 386.573 315.883 387.6V394H314.503V387.76C314.503 386.573 314.203 385.667 313.603 385.04C313.016 384.413 312.209 384.1 311.183 384.1C310.129 384.1 309.289 384.433 308.663 385.1C308.036 385.767 307.723 386.747 307.723 388.04V394H306.323V379.2H307.723V384.94C308.069 384.287 308.576 383.78 309.243 383.42C309.923 383.06 310.683 382.88 311.523 382.88ZM329.859 387.98C329.859 388.46 329.846 388.827 329.819 389.08H320.759C320.799 389.907 320.999 390.613 321.359 391.2C321.719 391.787 322.192 392.233 322.779 392.54C323.366 392.833 324.006 392.98 324.699 392.98C325.606 392.98 326.366 392.76 326.979 392.32C327.606 391.88 328.019 391.287 328.219 390.54H329.699C329.432 391.607 328.859 392.48 327.979 393.16C327.112 393.827 326.019 394.16 324.699 394.16C323.672 394.16 322.752 393.933 321.939 393.48C321.126 393.013 320.486 392.36 320.019 391.52C319.566 390.667 319.339 389.673 319.339 388.54C319.339 387.407 319.566 386.413 320.019 385.56C320.472 384.707 321.106 384.053 321.919 383.6C322.732 383.147 323.659 382.92 324.699 382.92C325.739 382.92 326.646 383.147 327.419 383.6C328.206 384.053 328.806 384.667 329.219 385.44C329.646 386.2 329.859 387.047 329.859 387.98ZM328.439 387.94C328.452 387.127 328.286 386.433 327.939 385.86C327.606 385.287 327.146 384.853 326.559 384.56C325.972 384.267 325.332 384.12 324.639 384.12C323.599 384.12 322.712 384.453 321.979 385.12C321.246 385.787 320.839 386.727 320.759 387.94H328.439ZM354.309 383.08L350.889 394H349.489L346.469 384.84L343.449 394H342.029L338.609 383.08H340.029L342.749 392.58L345.809 383.08H347.209L350.229 392.6L352.929 383.08H354.309ZM361.997 394.16C360.971 394.16 360.044 393.933 359.217 393.48C358.404 393.013 357.757 392.36 357.277 391.52C356.811 390.667 356.577 389.673 356.577 388.54C356.577 387.407 356.817 386.42 357.297 385.58C357.777 384.727 358.431 384.073 359.257 383.62C360.084 383.153 361.011 382.92 362.037 382.92C363.064 382.92 363.991 383.153 364.817 383.62C365.657 384.073 366.311 384.727 366.777 385.58C367.257 386.42 367.497 387.407 367.497 388.54C367.497 389.66 367.257 390.647 366.777 391.5C366.297 392.353 365.637 393.013 364.797 393.48C363.957 393.933 363.024 394.16 361.997 394.16ZM361.997 392.94C362.717 392.94 363.384 392.78 363.997 392.46C364.611 392.127 365.104 391.633 365.477 390.98C365.864 390.313 366.057 389.5 366.057 388.54C366.057 387.58 365.871 386.773 365.497 386.12C365.124 385.453 364.631 384.96 364.017 384.64C363.404 384.307 362.737 384.14 362.017 384.14C361.297 384.14 360.631 384.307 360.017 384.64C359.404 384.96 358.911 385.453 358.537 386.12C358.177 386.773 357.997 387.58 357.997 388.54C357.997 389.5 358.177 390.313 358.537 390.98C358.911 391.633 359.397 392.127 359.997 392.46C360.611 392.78 361.277 392.94 361.997 392.94ZM372.449 385.02C372.756 384.34 373.223 383.813 373.849 383.44C374.489 383.067 375.269 382.88 376.189 382.88V384.34H375.809C374.796 384.34 373.983 384.613 373.369 385.16C372.756 385.707 372.449 386.62 372.449 387.9V394H371.049V383.08H372.449V385.02ZM380.695 379.2V394H379.295V379.2H380.695ZM384.226 388.52C384.226 387.4 384.452 386.42 384.906 385.58C385.359 384.727 385.979 384.073 386.766 383.62C387.566 383.153 388.466 382.92 389.466 382.92C390.426 382.92 391.292 383.153 392.066 383.62C392.839 384.087 393.406 384.693 393.766 385.44V379.2H395.166V394H393.766V391.56C393.432 392.32 392.886 392.947 392.126 393.44C391.366 393.92 390.472 394.16 389.446 394.16C388.446 394.16 387.546 393.927 386.746 393.46C385.959 392.993 385.339 392.333 384.886 391.48C384.446 390.627 384.226 389.64 384.226 388.52ZM393.766 388.54C393.766 387.66 393.586 386.887 393.226 386.22C392.866 385.553 392.372 385.04 391.746 384.68C391.132 384.32 390.452 384.14 389.706 384.14C388.932 384.14 388.239 384.313 387.626 384.66C387.012 385.007 386.526 385.513 386.166 386.18C385.819 386.833 385.646 387.613 385.646 388.52C385.646 389.413 385.819 390.2 386.166 390.88C386.526 391.547 387.012 392.06 387.626 392.42C388.239 392.767 388.932 392.94 389.706 392.94C390.452 392.94 391.132 392.76 391.746 392.4C392.372 392.04 392.866 391.527 393.226 390.86C393.586 390.193 393.766 389.42 393.766 388.54ZM420.25 383.08L416.83 394H415.43L412.41 384.84L409.39 394H407.97L404.55 383.08H405.97L408.69 392.58L411.75 383.08H413.15L416.17 392.6L418.87 383.08H420.25ZM433.039 387.98C433.039 388.46 433.025 388.827 432.999 389.08H423.939C423.979 389.907 424.179 390.613 424.539 391.2C424.899 391.787 425.372 392.233 425.959 392.54C426.545 392.833 427.185 392.98 427.879 392.98C428.785 392.98 429.545 392.76 430.159 392.32C430.785 391.88 431.199 391.287 431.399 390.54H432.879C432.612 391.607 432.039 392.48 431.159 393.16C430.292 393.827 429.199 394.16 427.879 394.16C426.852 394.16 425.932 393.933 425.119 393.48C424.305 393.013 423.665 392.36 423.199 391.52C422.745 390.667 422.519 389.673 422.519 388.54C422.519 387.407 422.745 386.413 423.199 385.56C423.652 384.707 424.285 384.053 425.099 383.6C425.912 383.147 426.839 382.92 427.879 382.92C428.919 382.92 429.825 383.147 430.599 383.6C431.385 384.053 431.985 384.667 432.399 385.44C432.825 386.2 433.039 387.047 433.039 387.98ZM431.619 387.94C431.632 387.127 431.465 386.433 431.119 385.86C430.785 385.287 430.325 384.853 429.739 384.56C429.152 384.267 428.512 384.12 427.819 384.12C426.779 384.12 425.892 384.453 425.159 385.12C424.425 385.787 424.019 386.727 423.939 387.94H431.619ZM444.488 379.2V394H443.088V379.2H444.488ZM449.359 381.02C449.079 381.02 448.839 380.92 448.639 380.72C448.439 380.52 448.339 380.273 448.339 379.98C448.339 379.687 448.439 379.447 448.639 379.26C448.839 379.06 449.079 378.96 449.359 378.96C449.639 378.96 449.879 379.06 450.079 379.26C450.279 379.447 450.379 379.687 450.379 379.98C450.379 380.273 450.279 380.52 450.079 380.72C449.879 380.92 449.639 381.02 449.359 381.02ZM450.059 383.08V394H448.659V383.08H450.059ZM458.109 392.64L461.789 383.08H463.269L458.889 394H457.309L452.929 383.08H454.429L458.109 392.64ZM476.046 387.98C476.046 388.46 476.033 388.827 476.006 389.08H466.946C466.986 389.907 467.186 390.613 467.546 391.2C467.906 391.787 468.38 392.233 468.966 392.54C469.553 392.833 470.193 392.98 470.886 392.98C471.793 392.98 472.553 392.76 473.166 392.32C473.793 391.88 474.206 391.287 474.406 390.54H475.886C475.62 391.607 475.046 392.48 474.166 393.16C473.3 393.827 472.206 394.16 470.886 394.16C469.86 394.16 468.94 393.933 468.126 393.48C467.313 393.013 466.673 392.36 466.206 391.52C465.753 390.667 465.526 389.673 465.526 388.54C465.526 387.407 465.753 386.413 466.206 385.56C466.66 384.707 467.293 384.053 468.106 383.6C468.92 383.147 469.846 382.92 470.886 382.92C471.926 382.92 472.833 383.147 473.606 383.6C474.393 384.053 474.993 384.667 475.406 385.44C475.833 386.2 476.046 387.047 476.046 387.98ZM474.626 387.94C474.64 387.127 474.473 386.433 474.126 385.86C473.793 385.287 473.333 384.853 472.746 384.56C472.16 384.267 471.52 384.12 470.826 384.12C469.786 384.12 468.9 384.453 468.166 385.12C467.433 385.787 467.026 386.727 466.946 387.94H474.626ZM486.796 381.02C486.516 381.02 486.276 380.92 486.076 380.72C485.876 380.52 485.776 380.273 485.776 379.98C485.776 379.687 485.876 379.447 486.076 379.26C486.276 379.06 486.516 378.96 486.796 378.96C487.076 378.96 487.316 379.06 487.516 379.26C487.716 379.447 487.816 379.687 487.816 379.98C487.816 380.273 487.716 380.52 487.516 380.72C487.316 380.92 487.076 381.02 486.796 381.02ZM487.496 383.08V394H486.096V383.08H487.496ZM496.786 382.88C498.093 382.88 499.16 383.287 499.986 384.1C500.813 384.9 501.226 386.067 501.226 387.6V394H499.846V387.76C499.846 386.573 499.546 385.667 498.946 385.04C498.36 384.413 497.553 384.1 496.526 384.1C495.473 384.1 494.633 384.433 494.006 385.1C493.38 385.767 493.066 386.747 493.066 388.04V394H491.666V383.08H493.066V384.94C493.413 384.273 493.913 383.767 494.566 383.42C495.22 383.06 495.96 382.88 496.786 382.88ZM505.563 394.1C505.269 394.1 505.023 394 504.823 393.8C504.636 393.6 504.543 393.353 504.543 393.06C504.543 392.767 504.636 392.527 504.823 392.34C505.023 392.14 505.269 392.04 505.563 392.04C505.843 392.04 506.076 392.14 506.263 392.34C506.463 392.527 506.563 392.767 506.563 393.06C506.563 393.353 506.463 393.6 506.263 393.8C506.076 394 505.843 394.1 505.563 394.1Z" fill="white"/>
</svg>
