<svg width="166" height="48" viewBox="0 0 166 48" fill="none" xmlns="http://www.w3.org/2000/svg">
<path d="M1.24684 29V7.3H6.64084C10.0508 7.3 11.7248 9.191 11.7248 12.663V23.637C11.7248 27.109 10.0508 29 6.64084 29H1.24684ZM6.57884 10.4H4.65684V25.9H6.57884C7.66384 25.9 8.31484 25.342 8.31484 23.792V12.508C8.31484 10.958 7.66384 10.4 6.57884 10.4ZM17.3111 10.4V16.445H21.9921V19.545H17.3111V25.9H23.2011V29H13.9011V7.3H23.2011V10.4H17.3111ZM24.8802 12.508C24.8802 9.036 26.5852 7.052 29.9022 7.052C33.2192 7.052 34.9242 9.036 34.9242 12.508V13.19H31.7002V12.291C31.7002 10.741 31.0802 10.152 29.9952 10.152C28.9102 10.152 28.2902 10.741 28.2902 12.291C28.2902 13.872 28.9722 15.05 31.2042 17.003C34.0562 19.514 34.9552 21.312 34.9552 23.792C34.9552 27.264 33.2192 29.248 29.8712 29.248C26.5232 29.248 24.7872 27.264 24.7872 23.792V22.459H28.0112V24.009C28.0112 25.559 28.6932 26.117 29.7782 26.117C30.8632 26.117 31.5452 25.559 31.5452 24.009C31.5452 22.428 30.8632 21.25 28.6312 19.297C25.7792 16.786 24.8802 14.988 24.8802 12.508ZM36.9089 29V7.3H40.3189V29H36.9089ZM47.9273 20.01V16.91H52.7013V23.792C52.7013 27.264 50.9653 29.248 47.6173 29.248C44.2693 29.248 42.5333 27.264 42.5333 23.792V12.508C42.5333 9.036 44.2693 7.052 47.6173 7.052C50.9653 7.052 52.7013 9.036 52.7013 12.508V14.616H49.4773V12.291C49.4773 10.741 48.7953 10.152 47.7103 10.152C46.6253 10.152 45.9433 10.741 45.9433 12.291V24.009C45.9433 25.559 46.6253 26.117 47.7103 26.117C48.7953 26.117 49.4773 25.559 49.4773 24.009V20.01H47.9273ZM62.1764 29L57.9914 13.283H57.9294V29H54.8604V7.3H59.1384L62.5794 20.289H62.6414V7.3H65.6794V29H62.1764ZM77.9563 7.3C81.3663 7.3 83.0403 9.191 83.0403 12.663V15.484C83.0403 18.956 81.3663 20.847 77.9563 20.847H76.3443V29H72.9343V7.3H77.9563ZM77.9563 10.4H76.3443V17.747H77.9563C79.0413 17.747 79.6303 17.251 79.6303 15.701V12.446C79.6303 10.896 79.0413 10.4 77.9563 10.4ZM91.7903 7.3L95.2623 29H91.8213L91.2323 25.063H87.0473L86.4583 29H83.3273L86.7993 7.3H91.7903ZM89.0933 11.144L87.4813 22.118H90.7673L89.1553 11.144H89.0933ZM104.135 29L99.9504 13.283H99.8884V29H96.8194V7.3H101.097L104.538 20.289H104.6V7.3H107.638V29H104.135ZM109.088 10.4V7.3H119.628V10.4H116.063V29H112.653V10.4H109.088ZM124.54 19.7V29H121.13V7.3H124.54V16.6H128.415V7.3H131.887V29H128.415V19.7H124.54ZM137.769 10.4V16.445H142.45V19.545H137.769V25.9H143.659V29H134.359V7.3H143.659V10.4H137.769ZM156.374 29H152.902C152.716 28.442 152.592 28.101 152.592 26.334V22.924C152.592 20.909 151.91 20.165 150.36 20.165H149.182V29H145.772V7.3H150.918C154.452 7.3 155.971 8.943 155.971 12.291V13.996C155.971 16.228 155.258 17.654 153.739 18.367V18.429C155.444 19.142 156.002 20.754 156.002 23.017V26.365C156.002 27.419 156.033 28.194 156.374 29ZM150.825 10.4H149.182V17.065H150.515C151.786 17.065 152.561 16.507 152.561 14.771V12.632C152.561 11.082 152.034 10.4 150.825 10.4Z" fill="black"/>
<path d="M3.27884 40.4L4.17484 46H3.28684L3.13484 44.984H2.05484L1.90284 46H1.09484L1.99084 40.4H3.27884ZM2.58284 41.392L2.16684 44.224H3.01484L2.59884 41.392H2.58284ZM13.1868 46V40.4H14.5788C15.4588 40.4 15.8908 40.888 15.8908 41.784V44.616C15.8908 45.512 15.4588 46 14.5788 46H13.1868ZM14.5628 41.2H14.0668V45.2H14.5628C14.8428 45.2 15.0108 45.056 15.0108 44.656V41.744C15.0108 41.344 14.8428 41.2 14.5628 41.2ZM25.9346 41.2V42.76H27.1426V43.56H25.9346V45.2H27.4546V46H25.0546V40.4H27.4546V41.2H25.9346ZM36.4902 41.744C36.4902 40.848 36.9302 40.336 37.7862 40.336C38.6422 40.336 39.0822 40.848 39.0822 41.744V41.92H38.2502V41.688C38.2502 41.288 38.0902 41.136 37.8102 41.136C37.5302 41.136 37.3702 41.288 37.3702 41.688C37.3702 42.096 37.5462 42.4 38.1222 42.904C38.8582 43.552 39.0902 44.016 39.0902 44.656C39.0902 45.552 38.6422 46.064 37.7782 46.064C36.9142 46.064 36.4662 45.552 36.4662 44.656V44.312H37.2982V44.712C37.2982 45.112 37.4742 45.256 37.7542 45.256C38.0342 45.256 38.2102 45.112 38.2102 44.712C38.2102 44.304 38.0342 44 37.4582 43.496C36.7222 42.848 36.4902 42.384 36.4902 41.744ZM48.1965 46V40.4H49.0765V46H48.1965ZM59.6421 43.68V42.88H60.8741V44.656C60.8741 45.552 60.4261 46.064 59.5621 46.064C58.6981 46.064 58.2501 45.552 58.2501 44.656V41.744C58.2501 40.848 58.6981 40.336 59.5621 40.336C60.4261 40.336 60.8741 40.848 60.8741 41.744V42.288H60.0421V41.688C60.0421 41.288 59.8661 41.136 59.5861 41.136C59.3061 41.136 59.1301 41.288 59.1301 41.688V44.712C59.1301 45.112 59.3061 45.256 59.5861 45.256C59.8661 45.256 60.0421 45.112 60.0421 44.712V43.68H59.6421ZM71.9215 46L70.8415 41.944H70.8255V46H70.0335V40.4H71.1375L72.0255 43.752H72.0415V40.4H72.8255V46H71.9215ZM83.7778 43.912H84.6098V44.656C84.6098 45.552 84.1618 46.064 83.2978 46.064C82.4338 46.064 81.9858 45.552 81.9858 44.656V41.744C81.9858 40.848 82.4338 40.336 83.2978 40.336C84.1618 40.336 84.6098 40.848 84.6098 41.744V42.288H83.7778V41.688C83.7778 41.288 83.6018 41.136 83.3218 41.136C83.0418 41.136 82.8658 41.288 82.8658 41.688V44.712C82.8658 45.112 83.0418 45.256 83.3218 45.256C83.6018 45.256 83.7778 45.112 83.7778 44.712V43.912ZM94.5539 41.688V44.712C94.5539 45.112 94.7299 45.264 95.0099 45.264C95.2899 45.264 95.4659 45.112 95.4659 44.712V41.688C95.4659 41.288 95.2899 41.136 95.0099 41.136C94.7299 41.136 94.5539 41.288 94.5539 41.688ZM93.6739 44.656V41.744C93.6739 40.848 94.1459 40.336 95.0099 40.336C95.8739 40.336 96.3459 40.848 96.3459 41.744V44.656C96.3459 45.552 95.8739 46.064 95.0099 46.064C94.1459 46.064 93.6739 45.552 93.6739 44.656ZM106.736 40.4L107.376 44.376H107.392L107.984 40.4H109.208V46H108.376V41.984H108.36L107.768 46H106.936L106.296 42.04H106.28V46H105.512V40.4H106.736ZM119.746 40.4C120.626 40.4 121.058 40.888 121.058 41.784V42.512C121.058 43.408 120.626 43.896 119.746 43.896H119.33V46H118.45V40.4H119.746ZM119.746 41.2H119.33V43.096H119.746C120.026 43.096 120.178 42.968 120.178 42.568V41.728C120.178 41.328 120.026 41.2 119.746 41.2ZM132.02 40.4L132.916 46H132.028L131.876 44.984H130.796L130.644 46H129.836L130.732 40.4H132.02ZM131.324 41.392L130.908 44.224H131.756L131.34 41.392H131.324ZM143.808 46L142.728 41.944H142.712V46H141.92V40.4H143.024L143.912 43.752H143.928V40.4H144.712V46H143.808ZM154.768 46V44.144L153.656 40.4H154.576L155.24 42.952H155.256L155.92 40.4H156.76L155.648 44.144V46H154.768Z" fill="black"/>
<path d="M0 34.0181H157.013" stroke="black"/>
<g clip-path="url(#clip0_1_247)">
<path d="M161.507 0.84375C159.491 0.84375 157.851 2.484 157.851 4.5C157.851 6.516 159.491 8.15625 161.507 8.15625C163.523 8.15625 165.163 6.516 165.163 4.5C165.163 2.484 163.523 0.84375 161.507 0.84375ZM161.507 1.40625C163.219 1.40625 164.601 2.78831 164.601 4.5C164.601 6.21169 163.219 7.59375 161.507 7.59375C159.795 7.59375 158.413 6.21169 158.413 4.5C158.413 2.78831 159.795 1.40625 161.507 1.40625ZM160.382 2.8125V6.1875H160.944V5.0625H161.902L162.351 6.1875H162.913L162.438 4.99219C162.878 4.83947 163.194 4.42969 163.194 3.9375C163.194 3.31594 162.691 2.8125 162.069 2.8125H160.382ZM160.944 3.375H162.069C162.404 3.375 162.632 3.60253 162.632 3.9375C162.632 4.27247 162.404 4.5 162.069 4.5H160.944V3.375Z" fill="black"/>
</g>
<defs>
<clipPath id="clip0_1_247">
<rect width="9" height="9" fill="white" transform="translate(157.007)"/>
</clipPath>
</defs>
</svg>
