<svg width="52" height="52" viewBox="0 0 52 52" fill="none" xmlns="http://www.w3.org/2000/svg">
<path d="M33.15 22.2083L40.7875 14.5167L39.2708 13L33.15 19.1208L30.0625 16.0333L28.5458 17.6042L33.15 22.2083ZM6.5 43.3333V39H32.5V43.3333H6.5ZM34.6667 28.1667C31.6694 28.1667 29.1149 27.1101 27.0032 24.9968C24.8914 22.8836 23.8348 20.3291 23.8333 17.3333C23.8319 14.3376 24.8885 11.7831 27.0032 9.66983C29.1178 7.55661 31.6723 6.5 34.6667 6.5C37.661 6.5 40.2162 7.55661 42.3323 9.66983C44.4484 11.7831 45.5043 14.3376 45.5 17.3333C45.4957 20.3291 44.4391 22.8843 42.3302 24.999C40.2213 27.1137 37.6668 28.1696 34.6667 28.1667ZM6.5 26V21.6667H20.15C20.4028 22.4611 20.6917 23.2194 21.0167 23.9417C21.3417 24.6639 21.7389 25.35 22.2083 26H6.5ZM6.5 34.6667V30.3333H26.8667C27.6972 30.8389 28.5819 31.2636 29.5208 31.6073C30.4597 31.9511 31.4528 32.1945 32.5 32.3375V34.6667H6.5Z" fill="white"/>
</svg>
